<svg version="1.2" xmlns="http://www.w3.org/2000/svg" viewBox="0 0 32 29" width="32" height="29">
    <title>Caveman Head</title>
    <style>
        .s0 { fill: #f1dcc1 }
    </style>
    <g id="layer1">
        <!-- Caveman Head Shape -->
        <path id="path3612" fill-rule="evenodd" class="s0" d="m1.2 0.9l1.5 7.6c-1.2 1.8-1.8 4-1.8 6.2 0 7.4 6.8 13.3 15.1 13.3 8.3 0 15-5.9 15-13.3 0-2.1-0.6-4.2-1.6-6l1.4-7.6-6.1 2.8c-2.5-1.6-5.5-2.5-8.7-2.5-3.2 0-6.1 0.9-8.5 2.3z"/>

        <!-- Caveman Hair -->
        <circle cx="16" cy="5" r="3" fill="#000" />

        <!-- Caveman Beard -->
        <path d="M15 9.5c0 1.4 0.7 2.6 2 2.6s2-1.2 2-2.6c0-0.7-0.2-1.4-0.6-1.9-0.5-0.5-1.1-0.7-1.8-0.7s-1.3 0.2-1.8 0.7c-0.4 0.5-0.6 1.2-0.6 1.9z" fill="#000" />

        <!-- Caveman Eyebrows -->
        <path d="M13.5 6c-0.4 0-0.8 0.2-1.1 0.4-0.3 0.2-0.5 0.5-0.5 0.9 0 0.4 0.2 0.7 0.5 0.9 0.3 0.2 0.7 0.4 1.1 0.4 0.4 0 0.8-0.2 1.1-0.4 0.3-0.2 0.5-0.5 0.5-0.9 0-0.4-0.2-0.7-0.5-0.9-0.3-0.2-0.7-0.4-1.1-0.4z" fill="#000" />
        <path d="M18.5 6c-0.4 0-0.8 0.2-1.1 0.4-0.3 0.2-0.5 0.5-0.5 0.9 0 0.4 0.2 0.7 0.5 0.9 0.3 0.2 0.7 0.4 1.1 0.4 0.4 0 0.8-0.2 1.1-0.4 0.3-0.2 0.5-0.5 0.5-0.9 0-0.4-0.2-0.7-0.5-0.9-0.3-0.2-0.7-0.4-1.1-0.4z" fill="#000" />

        <!-- Caveman Eyes -->
        <circle cx="13" cy="8" r="0.5" fill="#000" />
        <circle cx="18" cy="8" r="0.5" fill="#000" />

        <!-- Caveman Nose -->
        <circle cx="16" cy="10" r="0.6" fill="#8B4513" />

        <!-- Caveman Mouth -->
        <path d="M15.5 12c0 0.2 0.1 0.3 0.3 0.3 0.2 0 0.3-0.1 0.3-0.3 0-0.2-0.1-0.3-0.3-0.3-0.2 0-0.3 0.1-0.3 0.3z" fill="#000" />
    </g>
</svg>
